HIERARCHY
ROOT joint_Root
{
	OFFSET 0.0 0.0 0.0
	CHANNELS 6 Xposition Yposition Zposition Zrotation Xrotation Yrotation 
	JOINT Hips
	{
		OFFSET -17.1583 93.1646 452.98
		CHANNELS 6 Xposition Yposition Zposition Zrotation Xrotation Yrotation 
		JOINT Spine
		{
			OFFSET 15.7357 0.0 0.0
			CHANNELS 6 Xposition Yposition Zposition Zrotation Xrotation Yrotation 
			JOINT Chest
			{
				OFFSET 8.98455 -0.406207 0.0
				CHANNELS 6 Xposition Yposition Zposition Zrotation Xrotation Yrotation 
				JOINT Neck
				{
					OFFSET 16.3773 0.0 0.0
					CHANNELS 6 Xposition Yposition Zposition Zrotation Xrotation Yrotation 
					JOINT Head
					{
						OFFSET 6.45672 0.0 0.0
						CHANNELS 6 Xposition Yposition Zposition Zrotation Xrotation Yrotation 
						End Site
						{
							OFFSET 0.0 0.0 0.0
						}
					}
				}
				JOINT Shoulder_L
				{
					OFFSET 12.9942 -0.242716 4.98039
					CHANNELS 6 Xposition Yposition Zposition Zrotation Xrotation Yrotation 
					JOINT UpperArm_L
					{
						OFFSET 5.34809 0.0 0.0
						CHANNELS 6 Xposition Yposition Zposition Zrotation Xrotation Yrotation 
						JOINT LowerArm_L
						{
							OFFSET 24.3286 1.87007e-05 0.0
							CHANNELS 6 Xposition Yposition Zposition Zrotation Xrotation Yrotation 
							JOINT Hand_L
							{
								OFFSET 22.2916 0.0 0.0
								CHANNELS 6 Xposition Yposition Zposition Zrotation Xrotation Yrotation 
								End Site
								{
									OFFSET 0.0 0.0 0.0
								}
							}
						}
					}
				}
				JOINT Shoulder_R
				{
					OFFSET 12.9945 -0.242716 -4.98039
					CHANNELS 6 Xposition Yposition Zposition Zrotation Xrotation Yrotation 
					JOINT UpperArm_R
					{
						OFFSET -5.34813 0.0 0.0
						CHANNELS 6 Xposition Yposition Zposition Zrotation Xrotation Yrotation 
						JOINT LowerArm_R
						{
							OFFSET -24.3289 0.000322201 0.0
							CHANNELS 6 Xposition Yposition Zposition Zrotation Xrotation Yrotation 
							JOINT Hand_R
							{
								OFFSET -22.2915 -0.000108084 0.0
								CHANNELS 6 Xposition Yposition Zposition Zrotation Xrotation Yrotation 
								End Site
								{
									OFFSET 0.0 0.0 0.0
								}
							}
						}
					}
				}
			}
		}
		JOINT UpperLeg_L
		{
			OFFSET -2.19248 -6.46944 0.0
			CHANNELS 6 Xposition Yposition Zposition Zrotation Xrotation Yrotation 
			JOINT LowerLeg_L
			{
				OFFSET 39.0811 0.0 -1.23785e-05
				CHANNELS 6 Xposition Yposition Zposition Zrotation Xrotation Yrotation 
				JOINT Foot_L
				{
					OFFSET 40.9854 0.0 -1.26872e-05
					CHANNELS 6 Xposition Yposition Zposition Zrotation Xrotation Yrotation 
					JOINT Toes_L
					{
						OFFSET 11.7543 0.0 0.0
						CHANNELS 6 Xposition Yposition Zposition Zrotation Xrotation Yrotation 
						End Site
						{
							OFFSET 0.0 0.0 0.0
						}
					}
				}
			}
		}
		JOINT UpperLeg_R
		{
			OFFSET -2.19251 6.46944 0.0
			CHANNELS 6 Xposition Yposition Zposition Zrotation Xrotation Yrotation 
			JOINT LowerLeg_R
			{
				OFFSET -39.0811 -0.00228153 -0.0401928
				CHANNELS 6 Xposition Yposition Zposition Zrotation Xrotation Yrotation 
				JOINT Foot_R
				{
					OFFSET -40.9854 0.0 0.0
					CHANNELS 6 Xposition Yposition Zposition Zrotation Xrotation Yrotation 
					JOINT Toes_R
					{
						OFFSET -11.7543 0.0 0.0
						CHANNELS 6 Xposition Yposition Zposition Zrotation Xrotation Yrotation 
						End Site
						{
							OFFSET 0.0 0.0 0.0
						}
					}
				}
			}
		}
	}
}
MOTION
Frames:	5
Frame Time:	0.0333333
0.000000 0.000000 0.000000 0.000000 0.000000 -0.000000 -3.534240 93.238600 -0.148282 87.900700 7.408570 1.250290 15.735700 0.000005 -0.000001 58.033800 85.347100 -54.363000 8.984550 -0.406207 -0.000000 0.308185 -5.163960 7.354740 16.377300 -0.000001 -0.000001 0.229613 0.261122 2.355570 6.456720 -0.000001 -0.000000 -14.144700 2.474250 -0.469181 12.994200 -0.242716 4.980390 -93.197000 10.441400 -72.870300 5.348090 -0.000007 -0.000001 -72.084000 17.266700 -0.801901 24.328600 0.000019 0.000005 10.242700 25.114500 -23.061500 22.291600 -0.000001 0.000005 -5.370990 5.140520 4.169030 12.994500 -0.242716 -4.980390 88.041800 5.027540 -68.687400 -5.348130 -0.000001 -0.000004 -64.866800 0.476075 -12.117400 -24.328900 0.000322 -0.000009 -1.142610 -14.309600 -4.610010 -22.291500 -0.000108 -0.000004 -13.109100 4.937580 8.619700 -2.192480 -6.469440 -0.000000 -171.134000 -10.191000 -1.598230 39.081100 -0.000007 -0.000012 -0.003363 0.013281 14.206300 40.985400 -0.000006 -0.000013 -2.122050 19.689300 -66.984900 11.754300 -0.000000 0.000003 -0.001706 0.192599 -8.763220 -2.192510 6.469440 -0.000001 179.038000 14.849100 -177.411000 -39.081100 -0.002282 -0.040193 0.005053 -0.008994 10.797700 -40.985400 0.000008 0.000006 -4.785990 6.568110 -66.755300 -11.754300 -0.000006 -0.000006 -0.009009 0.263747 -5.860000
0.000000 0.000000 0.000000 0.000000 0.000000 -0.000000 -3.325540 93.245800 -0.132176 87.938300 7.680850 1.089930 15.735700 0.000005 -0.000001 56.657800 85.363300 -53.257600 8.984550 -0.406207 -0.000000 0.151184 -5.321400 6.806990 16.377300 -0.000001 -0.000001 -0.188723 0.107335 2.117190 6.456720 -0.000001 -0.000000 -14.323400 2.673070 -1.022260 12.994200 -0.242716 4.980390 -93.334300 10.884200 -72.853100 5.348090 -0.000007 -0.000001 -69.686800 16.126100 -1.171870 24.328600 0.000019 0.000005 10.040500 25.903600 -22.062200 22.291600 -0.000001 0.000005 -4.623720 5.143920 4.088440 12.994500 -0.242716 -4.980390 88.189900 4.495510 -68.040900 -5.348130 -0.000001 -0.000004 -65.917800 -15.245500 -12.667200 -24.328900 0.000322 -0.000009 -0.345011 -22.671600 -0.892458 -22.291500 -0.000108 -0.000004 -10.910800 4.935390 8.664300 -2.192480 -6.469440 -0.000000 -171.355000 -10.027300 -1.830680 39.081100 -0.000007 -0.000012 -0.004035 0.015816 14.309400 40.985400 -0.000006 -0.000013 -1.939100 19.717500 -67.097900 11.754300 -0.000000 0.000003 -0.001595 0.191152 -8.822070 -2.192510 6.469440 -0.000001 178.847000 15.228600 -177.412000 -39.081100 -0.002282 -0.040193 0.003592 -0.001357 10.607400 -40.985400 0.000008 0.000006 -5.055140 6.694030 -66.642500 -11.754300 -0.000006 -0.000006 -0.008717 0.261457 -5.953570
0.000000 0.000000 0.000000 0.000000 0.000000 -0.000000 -3.120240 93.244000 -0.073114 87.983200 7.950500 0.832204 15.735700 0.000005 -0.000001 56.472400 85.553800 -53.544600 8.984550 -0.406207 -0.000000 -0.213790 -5.114190 5.845770 16.377300 -0.000001 -0.000001 -0.522197 -0.271705 1.669370 6.456720 -0.000001 -0.000000 -14.212700 2.344570 -1.500710 12.994200 -0.242716 4.980390 -93.437900 11.020100 -72.553500 5.348090 -0.000007 -0.000001 -67.433000 13.187200 -1.729550 24.328600 0.000019 0.000005 9.955900 27.087100 -21.081300 22.291600 -0.000001 0.000005 -3.583330 5.121850 4.608400 12.994500 -0.242716 -4.980390 88.570400 3.447360 -67.459900 -5.348130 -0.000001 -0.000004 -65.215000 -27.667200 -12.650100 -24.328900 0.000322 -0.000009 -0.001078 -28.524200 -0.000163 -22.291500 -0.000108 -0.000004 -7.138610 4.912020 9.137290 -2.192480 -6.469440 -0.000000 -171.599000 -9.682320 -2.167070 39.081100 -0.000007 -0.000012 -0.005853 0.022703 14.455200 40.985400 -0.000006 -0.000013 -1.767220 19.631500 -67.262100 11.754300 -0.000000 0.000003 -0.001570 0.190829 -8.835200 -2.192510 6.469440 -0.000001 178.702000 15.374800 -177.528000 -39.081100 -0.002282 -0.040193 0.002966 0.002008 10.482300 -40.985400 0.000008 0.000006 -5.314370 6.683550 -66.601700 -11.754300 -0.000006 -0.000006 -0.008810 0.262186 -5.923810
0.000000 0.000000 0.000000 0.000000 0.000000 -0.000000 -2.965270 93.272100 -0.001679 88.063300 8.529630 0.457786 15.735700 0.000005 -0.000001 56.206500 85.832400 -53.964400 8.984550 -0.406207 -0.000000 -0.740601 -4.801490 4.453160 16.377300 -0.000001 -0.000001 -0.856604 -0.732327 1.068250 6.456720 -0.000001 -0.000000 -13.790200 1.488690 -1.988120 12.994200 -0.242716 4.980390 -93.529200 11.113200 -72.257000 5.348090 -0.000007 -0.000001 -65.078200 8.964160 -2.018610 24.328600 0.000019 0.000005 9.633120 26.735300 -20.671000 22.291600 -0.000001 0.000005 -2.251280 5.084830 5.459120 12.994500 -0.242716 -4.980390 88.992500 2.388210 -67.118300 -5.348130 -0.000001 -0.000004 -61.765000 -37.395400 -11.282100 -24.328900 0.000322 -0.000009 -0.001086 -32.484900 -0.000190 -22.291500 -0.000108 -0.000004 -2.290290 4.909430 9.189230 -2.192480 -6.469440 -0.000000 -171.843000 -9.220880 -2.454240 39.081100 -0.000007 -0.000012 -0.005301 0.020969 14.185400 40.985400 -0.000006 -0.000013 -1.712130 19.659200 -67.249300 11.754300 -0.000000 0.000003 -0.001696 0.192478 -8.768130 -2.192510 6.469440 -0.000001 178.586000 15.548500 -177.540000 -39.081100 -0.002282 -0.040193 0.000891 0.013889 9.993850 -40.985400 0.000008 0.000006 -5.952530 6.331950 -66.424400 -11.754300 -0.000006 -0.000006 -0.009255 0.265654 -5.782060
0.000000 0.000000 0.000000 0.000000 0.000000 -0.000000 -2.856310 93.266500 0.114416 88.106600 9.172680 0.174500 15.735700 0.000005 -0.000001 56.378200 86.056300 -54.928300 8.984550 -0.406207 -0.000000 -1.140090 -4.479100 2.855210 16.377300 -0.000001 -0.000001 -1.072070 -1.342180 0.263665 6.456720 -0.000001 -0.000000 -13.728800 0.527997 -2.599670 12.994200 -0.242716 4.980390 -93.703600 11.288100 -71.701300 5.348090 -0.000007 -0.000001 -62.515900 4.777440 -2.245440 24.328600 0.000019 0.000005 9.096240 25.092100 -20.683600 22.291600 -0.000001 0.000005 -0.915250 5.082820 5.504690 12.994500 -0.242716 -4.980390 89.460900 1.258400 -66.806600 -5.348130 -0.000001 -0.000004 -56.425700 -46.057200 -8.977410 -24.328900 0.000322 -0.000009 -0.001115 -36.175200 -0.000217 -22.291500 -0.000108 -0.000004 5.918060 4.928160 8.811810 -2.192480 -6.469440 -0.000000 -172.007000 -8.626040 -2.824500 39.081100 -0.000007 -0.000012 -0.006504 0.025594 14.257300 40.985400 -0.000006 -0.000013 -1.617850 19.683200 -67.354900 11.754300 -0.000000 0.000003 -0.001673 0.192174 -8.780520 -2.192510 6.469440 -0.000001 178.551000 15.625900 -177.578000 -39.081100 -0.002282 -0.040193 0.000247 0.017974 9.763080 -40.985400 0.000008 0.000006 -6.330340 5.803340 -66.346700 -11.754300 -0.000006 -0.000006 -0.009025 0.263871 -5.854950
